<?xml version="1.0"?>
<svg version="1.1" xmlns="http://www.w3.org/2000/svg" width="200px" height="40px" style=""><path fill="#fa0a0a" d="M26.716,39.096q-0.308,0-0.308-1.064q0-0.392,0.056-0.7q-1.792-1.372-1.792-4.032q0-2.016,1.148-4.564q1.456-3.22,5.684-6.272q4.872-3.472,10.08-3.472q2.8,0,4.256,1.092t1.456,2.716q0,1.008-0.784,2.492q0.224,0.756,0.224,1.54q0,3.5-3.584,6.692q-3.192,2.856-6.748,4.032q5.684,4.088,7.672,4.088q0.448,0,0.812-0.238t0.364-0.56t-0.196-0.602q-0.084-0.196-0.084-0.308q0-0.392,0.49,0.14t0.49,1.12t-0.56,0.98t-1.456,0.392q-2.912,0-9.268-4.508q-1.736,0.392-3.892,0.392t-3.472-0.616q-0.392,1.26-0.588,1.26z M46.148,24.452q0.28-0.672,0.28-1.498t-0.616-1.694q-1.204-1.68-4.256-1.68q-4.228,0-7.98,2.618t-5.852,6.594q-1.54,2.884-1.54,5.18q0,1.456,0.616,2.352q0.308-0.756,0.756-1.372q0.7-1.008,1.82-1.008t2.268,0.644q1.512,0.812,3.864,2.352q2.996-1.12,5.684-3.5q3.556-3.136,3.864-6.076q-1.456,1.596-5.04,3.808l-0.224,0.056q-0.028,0-0.028-0.028q0-0.112,0.756-0.756l1.568-1.288q2.016-1.764,2.94-2.884q-0.196-1.568-1.414-2.618t-2.786-1.526q-0.784-0.196-2.422-0.252t-1.638-0.112t0.056-0.112q1.288-0.42,2.478-0.42t2.73,0.364q2.94,0.7,4.116,2.856z M33.8,37.472q-3.22-1.96-4.396-1.96t-1.596,0.896l-0.28,0.672q0.952,0.756,2.38,0.784l0.56,0q1.624,0,3.332-0.392z M56.84876,28.428l0.392-0.084q0.308,0,0.588,0.252t0.28,0.392t-1.736,2.702t-1.736,3.57q0,0.084,0.028,0.168q0.14,0.644,0.616,0.644q1.456,0,5.32-4.816q0.084-0.112,0.196-0.112t0.112,0.21t-0.252,0.546q-3.584,4.788-5.46,4.788q-0.252,0-0.476-0.084q-1.232-0.476-1.232-1.848q0-0.476,0.112-0.952l-1.736,1.68q-1.652,1.456-2.394,1.456t-1.414-0.476q-0.756-0.56-0.756-1.484q0-2.044,2.856-4.886t5.236-2.842q0.924,0,1.232,0.644q0.084,0.224,0.14,0.378t0.084,0.154z M48.47676,35.316q0,1.008,0.7,1.008q1.624,0,4.424-3.556l2.968-4.088q-0.224-0.392-0.728-0.392q-1.708,0-4.536,2.646t-2.828,4.382z M67.19952,25.642q0.378,0.266,0.378,0.63t-0.35,0.63t-0.77,0.266t-0.77-0.308t-0.35-0.7q0-0.784,1.064-0.784q0.42,0,0.798,0.266z M61.33352,37.108q-1.428,0-1.428-1.848q0-1.512,1.652-4.186t2.66-2.702q0.28,0,0.63,0.224t0.35,0.448q-0.14,0.196-0.336,0.434t-0.42,0.518t-0.616,0.798t-0.756,0.994q-2.1,2.716-2.1,3.738t0.7,1.022q0.588,0,1.596-0.644q2.352-1.456,3.724-3.192q0.504-0.644,0.686-0.644t0.182,0.224t-0.644,0.896t-1.022,1.064t-0.518,0.518t-0.518,0.476t-0.574,0.49t-0.56,0.42t-0.644,0.406t-0.644,0.294q-0.588,0.252-1.4,0.252z M73.04228,36.38q-0.812,0.476-2.002,0.476t-1.82-0.784t-1.078-2.492q-0.504,0.504-0.7,0.504q-0.14,0-0.14-0.196t0.14-0.336q0.924-1.148,3.136-3.304l3.528-3.304q1.512-1.428,1.792-1.428q0.896,0,0.896,0.672q0,0.336-0.266,0.658t-0.392,0.504t-0.266,0.35q-0.504,0.868-1.022,3.584t-0.798,3.78q2.324-0.028,4.788-3.024q0.28-0.28,0.42-0.28t0.14,0.182t-0.252,0.49q-1.624,1.904-3.024,2.66q-0.84,0.42-2.184,0.7z M69.26228,33.272q0,0.952,0.63,1.554t1.414,0.602t1.204-0.308q0.56-0.308,1.106-2.576t0.658-4.004l0.112-0.952q-1.54,1.148-3.29,2.968t-1.806,2.408q-0.028,0.168-0.028,0.308z M80.60704,37.164q-0.308,0-0.56-0.084q-1.792-0.504-1.792-2.016q0-1.96,2.464-4.536t4.424-2.576q0.644,0,1.05,0.35t0.406,0.854q0,1.568-2.366,2.996t-3.85,1.428q-0.224,0-0.392-0.056q-0.42,0.756-0.42,1.596q0,1.456,1.386,1.456t3.598-1.876q1.708-1.372,2.912-2.912q0.252-0.336,0.434-0.336t0.182,0.168t-0.224,0.476q-1.512,1.988-3.64,3.528t-3.612,1.54z M85.89904,29.1q0-0.336-0.714-0.336t-2.03,1.092q-1.764,1.456-2.744,3.052q0.168,0.056,0.364,0.056q1.064,0,2.842-1.134t2.226-2.478q0.056-0.14,0.056-0.252z M93.3238,36.94q-2.1,0-2.1-2.324q0-1.176,0.616-2.576t1.344-2.352q-0.14,0.028-0.364,0.028q-0.672,0-1.12-0.952l-2.072,2.688q-1.736,2.156-2.016,2.156q-0.14,0-0.14-0.112q0-0.28,0.476-0.812q2.436-2.828,3.444-4.788q0.644-2.436,1.624-2.436q0.644,0,0.644,0.56t-0.7,1.428l-0.672,0.896q0,0.588,0.868,0.588q0.504,0,1.12-0.364l0.728-0.448q0.056-0.028,0.28-0.028t0.476,0.28t0.168,0.504l-1.932,2.436q-1.792,2.296-1.792,3.626t1.232,1.33q1.288,0,3.164-1.372q1.12-0.812,2.044-1.82q0.868-1.008,0.952-1.008q0.196,0,0.196,0.21t-0.252,0.49l-0.896,1.008q-0.756,0.784-1.68,1.512q-2.212,1.652-3.64,1.652z M120.77332,25.404q2.744,0,2.744,1.036q0,0.224-0.168,0.504q-0.672,1.036-2.436,1.036q-1.148,0-2.352-0.406t-1.82-0.854q-2.604,0.756-4.634,2.324t-3.038,3.556q-0.532,1.064-0.532,2.072q0,1.568,1.302,2.548t3.822,0.98q0.7,0,1.456-0.084q4.452-0.476,7.084-2.856q2.212-1.96,2.212-4.116q0-1.708-1.652-1.708q-1.988,0-4.564,2.128q-0.644,0.532-1.092,1.344t-0.448,1.596t0.784,0.98q0.28,0.112,0.28,0.28q0,0.28-0.56,0.224q-1.344-0.028-1.344-1.764t1.764-3.248q2.408-2.072,5.096-2.072q2.016,0,2.548,1.26q0.224,0.588,0.224,1.176q0,2.604-2.884,4.9q-3.444,2.8-8.736,2.8q-3.276,0-5.18-1.218t-1.904-3.178q0-1.148,0.728-2.296q2.576-4.088,8.792-6.076q-0.924-1.064-0.924-2.268t0.588-2.016q1.148-1.568,3.444-2.576q2.744-1.204,5.488-1.204q1.596,0,2.562,0.518t0.966,1.596t-0.798,1.82t-1.666,0.742t-0.868-0.42q0-0.252,0.364-0.252l0.56,0.084q0.56,0,1.022-0.602t0.462-1.246q0-0.952-1.092-1.4q-0.7-0.28-1.316-0.28t-0.868,0.028q-2.408,0.14-4.704,1.68q-2.688,1.764-2.688,3.976q0,0.812,0.56,1.512q1.792-0.56,3.416-0.56z M117.83332,26.412q1.204,0.952,2.772,0.952t1.568-0.868q0-0.392-1.4-0.392t-2.94,0.308z M133.75608,25.6q0.378,0.28,0.378,0.63t-0.35,0.616t-0.77,0.266t-0.77-0.294t-0.35-0.686q0-0.812,1.064-0.812q0.42,0,0.798,0.28z M132.42608,29.184q0,0.168-2.212,3.976q-2.156,4.116-3.332,5.74q-2.548,3.64-4.788,3.64q-0.84,0-1.554-0.546t-0.714-1.092t0.252-0.546q0.028,0,0.574,0.714t1.274,0.714q2.24,0,5.096-5.068q1.764-3.164,2.408-5.124q-0.336,0.392-1.162,1.148t-1.008,0.756t-0.182-0.084q0-0.252,0.448-0.644t1.204-1.484t0.896-1.204l0.924-0.98q0.56-0.532,1.218-0.532t0.658,0.616z M143.40684,28.428l0.392-0.084q0.308,0,0.588,0.252t0.28,0.392t-1.736,2.702t-1.736,3.57q0,0.084,0.028,0.168q0.14,0.644,0.616,0.644q1.456,0,5.32-4.816q0.084-0.112,0.196-0.112t0.112,0.21t-0.252,0.546q-3.584,4.788-5.46,4.788q-0.252,0-0.476-0.084q-1.232-0.476-1.232-1.848q0-0.476,0.112-0.952l-1.736,1.68q-1.652,1.456-2.394,1.456t-1.414-0.476q-0.756-0.56-0.756-1.484q0-2.044,2.856-4.886t5.236-2.842q0.924,0,1.232,0.644q0.084,0.224,0.14,0.378t0.084,0.154z M135.03484,35.316q0,1.008,0.7,1.008q1.624,0,4.424-3.556l2.968-4.088q-0.224-0.392-0.728-0.392q-1.708,0-4.536,2.646t-2.828,4.382z M148.7596,35.652q-1.12,0.784-1.596,0.784q-0.644,0-0.644-0.7q0-0.252,0.168-0.616t0.336-0.364q0.252,0,0.112,0.42q-0.084,0.42,0.252,0.42t0.812-0.336l-1.064-0.812q-0.056-0.056-0.056-0.196t0.28-0.406t0.434-0.266t1.358,0.952q3.472-3.92,5.096-5.152q-2.212-0.672-3.276-0.672q-0.308,0-0.588,0.042t-0.602,0.336t-0.322,0.658t0.308,0.602t0.308,0.378t-0.21,0.14t-0.686-0.56q-0.448-0.56-0.448-1.148q0-0.98,1.428-1.288q0.756-0.14,1.54-0.14t3.864,1.008q0.392-0.224,0.84-0.224q1.176,0,1.176,0.7q0,0.28-0.364,0.518t-0.868,0.238t-0.924-0.196q-2.66,1.652-5.712,5.208l1.008,0.784q1.204,0.784,2.8,0.784t2.352-0.504t0.756-1.288q0-0.364-0.14-0.686t0.252-0.322q0.14,0,0.28,0.322t0.14,0.77q0,1.12-1.064,1.848t-2.744,0.728q-1.848,0-3.052-0.7q-0.476-0.252-1.54-1.064z"/><path fill="#" d=""/></svg>
